<?xml version="1.0" encoding="UTF-8" standalone="no"?>
<!DOCTYPE svg PUBLIC "-//W3C//DTD SVG 1.1//EN" "http://www.w3.org/Graphics/SVG/1.1/DTD/svg11.dtd">
<svg xmlns="http://www.w3.org/2000/svg" xmlns:xl="http://www.w3.org/1999/xlink" version="1.1" viewBox="0 0 536 806" width="536pt" height="806pt" xmlns:dc="http://purl.org/dc/elements/1.1/"><metadata> Produced by OmniGraffle 6.5.2 <dc:date>2016-06-05 13:50:03 +0000</dc:date></metadata><defs/><g stroke="none" stroke-opacity="1" stroke-dasharray="none" fill="none" fill-opacity="1"><title>Canvas 3</title><rect fill="white" width="536" height="806"/><g><title>Layer 1</title><path d="M 394.01527 311.80772 L 394.01527 311.80772 C 393.87208 310.54679 411.02362 167.24409 411.02362 167.24409 L 438.0987 87.874015 L 482.3937 87.874015 C 486.81198 87.874015 490.3937 84.292293 490.3937 79.874015 L 490.3937 39.181102 C 490.3937 34.762824 486.81198 31.181102 482.3937 31.181102 L 404.8504 31.181102 C 400.43211 31.181102 396.8504 34.762824 396.8504 39.181102 L 396.8504 64.537265 L 256.10768 82.08137 C 255.45051 82.16329 254.78571 82.16329 254.12854 82.08137 L 113.385826 64.537265 L 113.385826 39.181102 C 113.385826 34.762824 109.804104 31.181102 105.385826 31.181102 L 27.84252 31.181102 C 23.424242 31.181102 19.84252 34.762824 19.84252 39.181102 L 19.84252 79.874015 C 19.84252 84.292293 23.424242 87.874015 27.84252 87.874015 L 72.3406 87.874015 L 98.890614 163.49239 L 98.890615 163.49239 C 99.104483 164.10152 99.243833 164.7343 99.305624 165.37692 L 113.29981 310.91648 C 113.356975 311.51097 113.34739 312.10999 113.27123 312.70234 L 87.972086 509.47345 C 87.906856 509.9808 87.79312 510.4807 87.632435 510.96633 L 71.929133 558.4252 L 27.84252 558.4252 C 23.424242 558.4252 19.84252 562.0069 19.84252 566.4252 L 19.84252 607.1181 C 19.84252 611.5364 23.424242 615.1181 27.84252 615.1181 L 105.385826 615.1181 C 109.804104 615.1181 113.385826 611.5364 113.385826 607.1181 L 113.385826 566.4252 C 113.385826 564.77418 112.88569 563.24 112.028665 561.96584 L 152.56347 536.07215 C 152.90126 535.85638 153.25478 535.6663 153.62105 535.5035 L 208.34646 511.1811 L 208.34646 539.0866 C 208.34646 543.5049 211.92818 547.0866 216.34646 547.0866 L 293.88976 547.0866 C 298.30804 547.0866 301.88976 543.5049 301.88976 539.0866 L 301.88976 509.78682 L 370.44835 538.21355 C 371.0397 538.45875 371.59948 538.77403 372.11568 539.15264 L 400.31386 559.83492 C 398.22165 561.27788 396.8504 563.6914 396.8504 566.4252 L 396.8504 607.1181 C 396.8504 611.5364 400.43211 615.1181 404.8504 615.1181 L 482.3937 615.1181 C 486.81198 615.1181 490.3937 611.5364 490.3937 607.1181 L 490.3937 566.4252 C 490.3937 562.0069 486.81198 558.4252 482.3937 558.4252 L 438.30708 558.4252 L 422.586 510.9126 C 422.4371 510.46257 422.32848 510.0002 422.26145 509.53092 L 394.01575 311.81102 C 394.01575 311.81102 394.01575 311.81102 394.01575 311.81102 Z M 394.01527 311.80772 L 394.01575 311.81102" fill="white"/><path d="M 394.01527 311.80772 L 394.01527 311.80772 C 393.87208 310.54679 411.02362 167.24409 411.02362 167.24409 L 438.0987 87.874015 L 482.3937 87.874015 C 486.81198 87.874015 490.3937 84.292293 490.3937 79.874015 L 490.3937 39.181102 C 490.3937 34.762824 486.81198 31.181102 482.3937 31.181102 L 404.8504 31.181102 C 400.43211 31.181102 396.8504 34.762824 396.8504 39.181102 L 396.8504 64.537265 L 256.10768 82.08137 C 255.45051 82.16329 254.78571 82.16329 254.12854 82.08137 L 113.385826 64.537265 L 113.385826 39.181102 C 113.385826 34.762824 109.804104 31.181102 105.385826 31.181102 L 27.84252 31.181102 C 23.424242 31.181102 19.84252 34.762824 19.84252 39.181102 L 19.84252 79.874015 C 19.84252 84.292293 23.424242 87.874015 27.84252 87.874015 L 72.3406 87.874015 L 98.890614 163.49239 L 98.890615 163.49239 C 99.104483 164.10152 99.243833 164.7343 99.305624 165.37692 L 113.29981 310.91648 C 113.356975 311.51097 113.34739 312.10999 113.27123 312.70234 L 87.972086 509.47345 C 87.906856 509.9808 87.79312 510.4807 87.632435 510.96633 L 71.929133 558.4252 L 27.84252 558.4252 C 23.424242 558.4252 19.84252 562.0069 19.84252 566.4252 L 19.84252 607.1181 C 19.84252 611.5364 23.424242 615.1181 27.84252 615.1181 L 105.385826 615.1181 C 109.804104 615.1181 113.385826 611.5364 113.385826 607.1181 L 113.385826 566.4252 C 113.385826 564.77418 112.88569 563.24 112.028665 561.96584 L 152.56347 536.07215 C 152.90126 535.85638 153.25478 535.6663 153.62105 535.5035 L 208.34646 511.1811 L 208.34646 539.0866 C 208.34646 543.5049 211.92818 547.0866 216.34646 547.0866 L 293.88976 547.0866 C 298.30804 547.0866 301.88976 543.5049 301.88976 539.0866 L 301.88976 509.78682 L 370.44835 538.21355 C 371.0397 538.45875 371.59948 538.77403 372.11568 539.15264 L 400.31386 559.83492 C 398.22165 561.27788 396.8504 563.6914 396.8504 566.4252 L 396.8504 607.1181 C 396.8504 611.5364 400.43211 615.1181 404.8504 615.1181 L 482.3937 615.1181 C 486.81198 615.1181 490.3937 611.5364 490.3937 607.1181 L 490.3937 566.4252 C 490.3937 562.0069 486.81198 558.4252 482.3937 558.4252 L 438.30708 558.4252 L 422.586 510.9126 C 422.4371 510.46257 422.32848 510.0002 422.26145 509.53092 L 394.01575 311.81102 C 394.01575 311.81102 394.01575 311.81102 394.01575 311.81102 Z M 394.01527 311.80772 L 394.01575 311.81102" stroke="black" stroke-linecap="round" stroke-linejoin="round" stroke-width="1"/><path d="M 34.01575 579.84166 C 32.698912 580.1359 31.443408 580.84477 30.422087 581.96823 C 27.65458 585.01247 27.65458 589.94816 30.422087 592.9924 C 31.443409 594.11586 32.698912 594.8247 34.015752 595.11896 L 34.015751 606.61417 L 99.2126 606.61417 L 99.2126 569.76378 L 34.015751 569.76378 Z" stroke="black" stroke-linecap="round" stroke-linejoin="round" stroke-width="1"/><path d="M 476.22047 579.84166 C 477.5373 580.1359 478.7928 580.84477 479.81413 581.96823 C 482.58164 585.01247 482.58164 589.94816 479.81413 592.9924 C 478.7928 594.11586 477.5373 594.8247 476.22047 595.11896 L 476.22047 606.61417 L 411.02362 606.61417 L 411.02362 569.76378 L 476.22047 569.76378 Z" stroke="black" stroke-linecap="round" stroke-linejoin="round" stroke-width="1"/><path d="M 287.71653 511.81016 C 289.03337 512.1044 290.28888 512.81327 291.3102 513.93673 C 294.0777 516.98097 294.0777 521.91666 291.3102 524.9609 C 290.28888 526.08436 289.03337 526.79322 287.71653 527.08747 L 287.71653 538.58267 L 222.51968 538.58267 L 222.51968 501.73228 L 287.71653 501.73228 Z" stroke="black" stroke-linecap="round" stroke-linejoin="round" stroke-width="1"/><path d="M 34.01575 52.597567 C 32.698912 52.89182 31.443408 53.600674 30.422087 54.724134 C 27.65458 57.768376 27.65458 62.704064 30.422087 65.748306 C 31.443409 66.871766 32.698912 67.58062 34.015752 67.874873 L 34.015751 79.37008 L 99.2126 79.37008 L 99.2126 42.519686 L 34.015751 42.519686 Z" stroke="black" stroke-linecap="round" stroke-linejoin="round" stroke-width="1"/><path d="M 476.22047 52.597567 C 477.5373 52.89182 478.7928 53.600674 479.81413 54.724134 C 482.58164 57.768376 482.58164 62.704064 479.81413 65.748306 C 478.7928 66.871766 477.5373 67.58062 476.22047 67.874873 L 476.22047 79.37008 L 411.02362 79.37008 L 411.02362 42.519686 L 476.22047 42.519686 Z" stroke="black" stroke-linecap="round" stroke-linejoin="round" stroke-width="1"/><path d="M 118.55118 504.56693 L 130.89764 504.56693 C 135.315915 504.56693 138.89764 508.14865 138.89764 512.56693 L 138.89764 513.5748 C 138.89764 517.99308 135.315915 521.5748 130.89764 521.5748 L 118.55118 521.5748 C 114.1329 521.5748 110.55118 517.99308 110.55118 513.5748 L 110.55118 512.56693 C 110.55118 508.14865 114.1329 504.56693 118.55118 504.56693 Z" fill="white"/><path d="M 118.55118 504.56693 L 130.89764 504.56693 C 135.315915 504.56693 138.89764 508.14865 138.89764 512.56693 L 138.89764 513.5748 C 138.89764 517.99308 135.315915 521.5748 130.89764 521.5748 L 118.55118 521.5748 C 114.1329 521.5748 110.55118 517.99308 110.55118 513.5748 L 110.55118 512.56693 C 110.55118 508.14865 114.1329 504.56693 118.55118 504.56693 Z" stroke="black" stroke-linecap="round" stroke-linejoin="round" stroke-width="1"/><path d="M 379.33858 504.56693 L 391.68504 504.56693 C 396.10332 504.56693 399.68504 508.14865 399.68504 512.56693 L 399.68504 513.5748 C 399.68504 517.99308 396.10332 521.5748 391.68504 521.5748 L 379.33858 521.5748 C 374.9203 521.5748 371.33858 517.99308 371.33858 513.5748 L 371.33858 512.56693 C 371.33858 508.14865 374.9203 504.56693 379.33858 504.56693 Z" fill="white"/><path d="M 379.33858 504.56693 L 391.68504 504.56693 C 396.10332 504.56693 399.68504 508.14865 399.68504 512.56693 L 399.68504 513.5748 C 399.68504 517.99308 396.10332 521.5748 391.68504 521.5748 L 379.33858 521.5748 C 374.9203 521.5748 371.33858 517.99308 371.33858 513.5748 L 371.33858 512.56693 C 371.33858 508.14865 374.9203 504.56693 379.33858 504.56693 Z" stroke="black" stroke-linecap="round" stroke-linejoin="round" stroke-width="1"/><path d="M 405.35433 112.88189 L 405.35433 125.228346 C 405.35433 129.64662 401.7726 133.228346 397.35433 133.228346 L 396.34645 133.228346 C 391.92818 133.228346 388.34645 129.64662 388.34645 125.228346 L 388.34645 112.88189 C 388.34645 108.46361 391.92818 104.88189 396.34645 104.88189 L 397.35433 104.88189 C 401.7726 104.88189 405.35433 108.46361 405.35433 112.88189 Z" fill="white"/><path d="M 405.35433 112.88189 L 405.35433 125.228346 C 405.35433 129.64662 401.7726 133.228346 397.35433 133.228346 L 396.34645 133.228346 C 391.92818 133.228346 388.34645 129.64662 388.34645 125.228346 L 388.34645 112.88189 C 388.34645 108.46361 391.92818 104.88189 396.34645 104.88189 L 397.35433 104.88189 C 401.7726 104.88189 405.35433 108.46361 405.35433 112.88189 Z" stroke="black" stroke-linecap="round" stroke-linejoin="round" stroke-width="1"/><path d="M 121.889764 112.88189 L 121.889764 125.228346 C 121.889764 129.64662 118.30804 133.228346 113.889764 133.228346 L 112.88189 133.228346 C 108.46361 133.228346 104.88189 129.64662 104.88189 125.228346 L 104.88189 112.88189 C 104.88189 108.46361 108.46361 104.88189 112.88189 104.88189 L 113.889764 104.88189 C 118.30804 104.88189 121.889764 108.46361 121.889764 112.88189 Z" fill="white"/><path d="M 121.889764 112.88189 L 121.889764 125.228346 C 121.889764 129.64662 118.30804 133.228346 113.889764 133.228346 L 112.88189 133.228346 C 108.46361 133.228346 104.88189 129.64662 104.88189 125.228346 L 104.88189 112.88189 C 104.88189 108.46361 108.46361 104.88189 112.88189 104.88189 L 113.889764 104.88189 C 118.30804 104.88189 121.889764 108.46361 121.889764 112.88189 Z" stroke="black" stroke-linecap="round" stroke-linejoin="round" stroke-width="1"/></g></g></svg>
