solid OpenSCAD_Model
  facet normal -1 0 0
    outer loop
      vertex 0 0 0
      vertex 0 7 7
      vertex 0 7 0
    endloop
  endfacet
  facet normal -1 -0 0
    outer loop
      vertex 0 7 7
      vertex 0 0 0
      vertex 0 0 7
    endloop
  endfacet
  facet normal -0 0 1
    outer loop
      vertex 0 7 7
      vertex 2 0 7
      vertex 2 7 7
    endloop
  endfacet
  facet normal 0 0 1
    outer loop
      vertex 2 0 7
      vertex 0 7 7
      vertex 0 0 7
    endloop
  endfacet
  facet normal -0 0 1
    outer loop
      vertex 6.5 7 7
      vertex 8.5 0 7
      vertex 8.5 7 7
    endloop
  endfacet
  facet normal 0 0 1
    outer loop
      vertex 8.5 0 7
      vertex 6.5 7 7
      vertex 6.5 0 7
    endloop
  endfacet
  facet normal 1 -0 0
    outer loop
      vertex 8.5 0 7
      vertex 8.5 7 0
      vertex 8.5 7 7
    endloop
  endfacet
  facet normal 1 0 0
    outer loop
      vertex 8.5 7 0
      vertex 8.5 0 7
      vertex 8.5 0 0
    endloop
  endfacet
  facet normal 0 1 0
    outer loop
      vertex 8.5 7 7
      vertex 6.5 7 2
      vertex 6.5 7 7
    endloop
  endfacet
  facet normal 0 1 0
    outer loop
      vertex 6.5 7 2
      vertex 8.5 7 0
      vertex 2 7 2
    endloop
  endfacet
  facet normal 0 1 -0
    outer loop
      vertex 8.5 7 0
      vertex 6.5 7 2
      vertex 8.5 7 7
    endloop
  endfacet
  facet normal 0 1 -0
    outer loop
      vertex 2 7 2
      vertex 0 7 7
      vertex 2 7 7
    endloop
  endfacet
  facet normal 0 1 0
    outer loop
      vertex 2 7 2
      vertex 0 7 0
      vertex 0 7 7
    endloop
  endfacet
  facet normal 0 1 0
    outer loop
      vertex 0 7 0
      vertex 2 7 2
      vertex 8.5 7 0
    endloop
  endfacet
  facet normal 0 0 -1
    outer loop
      vertex 0 0 0
      vertex 8.5 7 0
      vertex 8.5 0 0
    endloop
  endfacet
  facet normal -0 0 -1
    outer loop
      vertex 8.5 7 0
      vertex 0 0 0
      vertex 0 7 0
    endloop
  endfacet
  facet normal 0 -1 0
    outer loop
      vertex 0 0 7
      vertex 2 0 2
      vertex 2 0 7
    endloop
  endfacet
  facet normal 0 -1 -0
    outer loop
      vertex 2 0 2
      vertex 0 0 0
      vertex 6.5 0 2
    endloop
  endfacet
  facet normal 0 -1 0
    outer loop
      vertex 0 0 0
      vertex 2 0 2
      vertex 0 0 7
    endloop
  endfacet
  facet normal 0 -1 0
    outer loop
      vertex 6.5 0 2
      vertex 8.5 0 7
      vertex 6.5 0 7
    endloop
  endfacet
  facet normal 0 -1 0
    outer loop
      vertex 6.5 0 2
      vertex 8.5 0 0
      vertex 8.5 0 7
    endloop
  endfacet
  facet normal 0 -1 0
    outer loop
      vertex 8.5 0 0
      vertex 6.5 0 2
      vertex 0 0 0
    endloop
  endfacet
  facet normal 1 -0 0
    outer loop
      vertex 2 0 7
      vertex 2 7 2
      vertex 2 7 7
    endloop
  endfacet
  facet normal 1 0 0
    outer loop
      vertex 2 7 2
      vertex 2 0 7
      vertex 2 0 2
    endloop
  endfacet
  facet normal -1 0 0
    outer loop
      vertex 6.5 0 2
      vertex 6.5 7 7
      vertex 6.5 7 2
    endloop
  endfacet
  facet normal -1 -0 0
    outer loop
      vertex 6.5 7 7
      vertex 6.5 0 2
      vertex 6.5 0 7
    endloop
  endfacet
  facet normal -0 0 1
    outer loop
      vertex 2 7 2
      vertex 6.5 0 2
      vertex 6.5 7 2
    endloop
  endfacet
  facet normal 0 0 1
    outer loop
      vertex 6.5 0 2
      vertex 2 7 2
      vertex 2 0 2
    endloop
  endfacet
endsolid OpenSCAD_Model
